# File created by Blade
# Date/Time:  Thu Jan 22 15:33:01 2015
# Frame Rate: 120.000 fps
#------------------------------------------------------
:FULLY-SPECIFIED
:DEGREES
2205
root -15.921653 2.866972 4.828734 282.497057 -86.467668 -333.761800
RightUpLeg -96.832494 4.226337 -29.244430
RightLeg 134.584605 -0.000000 -0.000000
RightFoot -2.827982 -8.946108 -40.620137
RightToeBase -102.057395 -0.000000 0.000000
LeftUpLeg -80.018656 -6.264720 45.622755
LeftLeg 135.081066 -0.000000 -0.000000
LeftFoot -27.276094 -6.158383 21.584942
LeftToeBase -13.599484 -0.000000 0.000000
Spine 49.081571 9.894935 -1.860948
RightShoulder -198.301210 -15.938797 166.650681
RightArm 209.183635 15.344195 129.986713
RightForeArm 15.441926 0.000000 41.293924
RightHand 13.746103 -0.000000 -8.224937
RightHandThumb1 -24.326973 -0.000000 -32.862282
LeftShoulder 19.881876 9.259089 24.036725
LeftArm 60.094966 -2.809871 -38.477262
LeftForeArm 13.376074 -0.000000 18.803044
LeftHand -21.880099 -0.000000 6.741950
LeftHandThumb1 -26.253704 0.000000 33.147579
Head 57.633416 -6.902362 20.433429
2206
root -15.979653 2.883981 4.835293 284.855607 -86.705646 -335.441025
RightUpLeg -96.704903 4.132018 -29.022312
RightLeg 134.984493 -0.000000 -0.000000
RightFoot -3.582366 -9.344899 -40.011765
RightToeBase -101.639816 -0.000000 0.000000
LeftUpLeg -80.456105 -6.310460 46.319988
LeftLeg 134.930385 -0.000000 -0.000000
LeftFoot -26.959205 -4.699671 21.541477
LeftToeBase -14.686437 -0.000000 0.000000
Spine 49.129512 9.849703 -1.649935
RightShoulder -198.547433 -16.309850 166.330954
RightArm 209.184956 15.215296 130.182064
RightForeArm 15.185188 -0.000000 41.804680
RightHand 13.743689 -0.000000 -8.169898
RightHandThumb1 -24.326973 -0.000000 -32.862282
LeftShoulder 19.879865 8.786947 24.198900
LeftArm 60.119011 -3.119416 -38.867547
LeftForeArm 13.729187 -0.000000 19.569262
LeftHand -21.882100 -0.000000 6.756072
LeftHandThumb1 -26.253704 0.000000 33.147579
Head 56.833685 -6.706116 20.490638
2207
root -16.037906 2.897720 4.829345 284.270623 -86.711710 -334.147428
RightUpLeg -96.714494 4.119674 -28.893034
RightLeg 135.341341 -0.000000 -0.000000
RightFoot -4.464041 -9.543936 -39.244821
RightToeBase -101.417294 -0.000000 0.000000
LeftUpLeg -80.737237 -6.124420 46.722757
LeftLeg 134.828293 -0.000000 -0.000000
LeftFoot -26.902537 -2.927238 20.703645
LeftToeBase -9.772789 -0.000000 0.000000
Spine 49.159352 10.034970 -1.765831
RightShoulder -198.697273 -16.697740 166.115727
RightArm 209.249645 15.123400 130.429904
RightForeArm 14.787476 -0.000000 42.294950
RightHand 13.696204 0.000000 -8.225654
RightHandThumb1 -24.326973 -0.000000 -32.862282
LeftShoulder 19.873045 8.509740 24.515659
LeftArm 60.416201 -3.593732 -39.173140
LeftForeArm 13.965545 0.000000 20.194018
LeftHand -21.827506 -0.000000 6.853706
LeftHandThumb1 -26.253704 0.000000 33.147579
Head 55.841307 -6.618989 20.807966
2208
root -16.098412 2.902766 4.803895 282.549096 -86.716602 -331.650145
RightUpLeg -96.848985 4.172691 -28.556751
RightLeg 135.627057 -0.000000 -0.000000
RightFoot -5.327995 -9.627345 -38.359679
RightToeBase -100.985768 -0.000000 0.000000
LeftUpLeg -80.950986 -5.691686 47.194359
LeftLeg 134.675134 -0.000000 -0.000000
LeftFoot -27.008465 -2.288123 19.789308
LeftToeBase -6.783113 -0.000000 0.000000
Spine 49.144001 10.440219 -1.897124
RightShoulder -198.620038 -16.993817 165.897437
RightArm 209.492946 15.052945 130.741708
RightForeArm 14.403516 -0.000000 42.780975
RightHand 13.729214 -0.000000 -8.262096
RightHandThumb1 -24.326973 -0.000000 -32.862282
LeftShoulder 19.954868 8.125615 25.090657
LeftArm 60.641112 -3.929542 -39.399246
LeftForeArm 13.932395 0.000000 20.969988
LeftHand -21.816666 -0.000000 7.025378
LeftHandThumb1 -26.253704 0.000000 33.147579
Head 54.626954 -6.651246 21.403028
